<svg xmlns="http://www.w3.org/2000/svg" xmlns:xlink="http://www.w3.org/1999/xlink" width="80" zoomAndPan="magnify" viewBox="0 0 60 60" height="80" preserveAspectRatio="xMidYMid meet" version="1.0"><defs><clipPath id="c813408dc6"><path d="M 2.617188 10.214844 L 20 10.214844 L 20 49.964844 L 2.617188 49.964844 Z M 2.617188 10.214844 " clip-rule="nonzero"/></clipPath><clipPath id="92a4c064c6"><path d="M 40 10.214844 L 57.367188 10.214844 L 57.367188 49.964844 L 40 49.964844 Z M 40 10.214844 " clip-rule="nonzero"/></clipPath><clipPath id="dd8d1372f9"><path d="M 19 10.214844 L 41 10.214844 L 41 49.964844 L 19 49.964844 Z M 19 10.214844 " clip-rule="nonzero"/></clipPath></defs><g clip-path="url(#c813408dc6)"><path fill="#006847" d="M 8.699219 10.222656 C 5.339844 10.222656 2.617188 12.957031 2.617188 16.335938 L 2.617188 43.84375 C 2.617188 47.222656 5.339844 49.957031 8.699219 49.957031 L 19.34375 49.957031 L 19.34375 10.222656 Z M 8.699219 10.222656 " fill-opacity="1" fill-rule="nonzero"/></g><g clip-path="url(#92a4c064c6)"><path fill="#ce1126" d="M 51.28125 10.222656 L 40.636719 10.222656 L 40.636719 49.957031 L 51.28125 49.957031 C 54.640625 49.957031 57.367188 47.222656 57.367188 43.84375 L 57.367188 16.335938 C 57.367188 12.957031 54.640625 10.222656 51.28125 10.222656 Z M 51.28125 10.222656 " fill-opacity="1" fill-rule="nonzero"/></g><g clip-path="url(#dd8d1372f9)"><path fill="#eeeeee" d="M 19.34375 10.222656 L 40.636719 10.222656 L 40.636719 49.957031 L 19.34375 49.957031 Z M 19.34375 10.222656 " fill-opacity="1" fill-rule="nonzero"/></g><path fill="#a6d388" d="M 37.59375 30.089844 C 37.59375 34.3125 34.191406 37.730469 29.992188 37.730469 C 25.792969 37.730469 22.386719 34.3125 22.386719 30.089844 L 20.867188 30.089844 C 20.867188 35.152344 24.949219 39.261719 29.992188 39.261719 C 35.03125 39.261719 39.117188 35.152344 39.117188 30.089844 Z M 37.59375 30.089844 " fill-opacity="1" fill-rule="nonzero"/><path fill="#5c913b" d="M 23.210938 33.558594 C 23.070312 33.28125 22.789062 33.128906 22.5 33.144531 C 22.394531 33.144531 22.289062 33.175781 22.1875 33.222656 C 21.8125 33.414062 21.664062 33.875 21.855469 34.253906 C 21.992188 34.523438 22.144531 34.789062 22.304688 35.042969 L 22.3125 35.050781 L 22.3125 35.054688 L 22.324219 35.070312 L 22.328125 35.082031 L 22.328125 35.085938 L 22.335938 35.09375 L 22.339844 35.101562 L 22.339844 35.105469 L 22.34375 35.113281 L 22.347656 35.113281 L 22.351562 35.121094 L 22.351562 35.125 L 22.355469 35.132812 L 22.363281 35.140625 L 22.363281 35.144531 L 22.371094 35.152344 L 22.371094 35.15625 L 22.375 35.160156 L 22.378906 35.167969 L 22.378906 35.171875 L 22.382812 35.179688 L 22.386719 35.183594 L 22.398438 35.199219 L 22.40625 35.210938 C 22.484375 35.328125 22.5625 35.441406 22.648438 35.554688 C 22.804688 35.765625 23.046875 35.871094 23.289062 35.863281 C 23.4375 35.855469 23.582031 35.808594 23.710938 35.710938 C 24.046875 35.460938 24.117188 34.980469 23.867188 34.644531 C 23.625 34.296875 23.402344 33.933594 23.210938 33.558594 Z M 22.457031 31.140625 C 22.425781 30.902344 22.402344 30.65625 22.390625 30.410156 C 22.382812 30.226562 22.382812 30.046875 22.386719 29.867188 C 22.398438 29.445312 22.066406 29.09375 21.648438 29.082031 L 21.59375 29.082031 C 21.199219 29.097656 20.878906 29.421875 20.867188 29.824219 C 20.863281 29.984375 20.863281 30.140625 20.867188 30.300781 L 20.867188 30.546875 L 20.871094 30.550781 L 20.871094 30.628906 C 20.886719 30.871094 20.910156 31.113281 20.941406 31.355469 C 20.996094 31.75 21.339844 32.027344 21.726562 32.015625 C 21.75 32.011719 21.773438 32.011719 21.796875 32.007812 C 22.226562 31.945312 22.515625 31.558594 22.457031 31.140625 Z M 30.507812 37.710938 L 30.5 37.714844 L 30.308594 37.726562 C 29.949219 37.738281 29.585938 37.730469 29.230469 37.691406 C 29.195312 37.6875 29.160156 37.6875 29.121094 37.691406 C 28.75 37.707031 28.4375 37.996094 28.398438 38.378906 C 28.355469 38.796875 28.660156 39.171875 29.078125 39.214844 L 29.269531 39.230469 L 29.285156 39.230469 L 29.292969 39.234375 L 29.332031 39.234375 L 29.339844 39.238281 L 29.394531 39.238281 C 29.625 39.253906 29.859375 39.261719 30.09375 39.257812 L 30.230469 39.257812 L 30.242188 39.253906 L 30.25 39.257812 L 30.25 39.253906 L 30.261719 39.257812 L 30.269531 39.253906 L 30.359375 39.253906 L 30.367188 39.25 L 30.40625 39.25 C 30.472656 39.246094 30.535156 39.242188 30.601562 39.238281 C 31.007812 39.203125 31.316406 38.847656 31.289062 38.433594 C 31.277344 38.019531 30.921875 37.695312 30.507812 37.710938 Z M 26.796875 37.027344 C 26.417969 36.847656 26.046875 36.636719 25.695312 36.398438 C 25.558594 36.300781 25.394531 36.257812 25.234375 36.265625 C 25.003906 36.273438 24.78125 36.386719 24.636719 36.597656 C 24.402344 36.945312 24.488281 37.421875 24.835938 37.65625 L 24.835938 37.660156 L 24.847656 37.664062 L 24.863281 37.679688 L 24.875 37.6875 C 25.277344 37.964844 25.707031 38.207031 26.15625 38.414062 C 26.265625 38.46875 26.386719 38.488281 26.503906 38.484375 C 26.78125 38.472656 27.039062 38.3125 27.164062 38.042969 C 27.34375 37.660156 27.179688 37.203125 26.796875 37.027344 Z M 34.449219 36.417969 C 34.320312 36.425781 34.1875 36.464844 34.070312 36.539062 C 33.714844 36.765625 33.339844 36.96875 32.953125 37.132812 C 32.566406 37.292969 32.382812 37.742188 32.546875 38.132812 C 32.675781 38.433594 32.972656 38.609375 33.277344 38.597656 C 33.367188 38.597656 33.453125 38.574219 33.542969 38.542969 L 33.746094 38.449219 L 33.75 38.449219 L 33.757812 38.445312 L 33.765625 38.4375 L 33.777344 38.4375 L 33.78125 38.433594 L 33.789062 38.429688 L 33.792969 38.429688 L 33.796875 38.425781 L 33.804688 38.421875 L 33.8125 38.421875 L 33.816406 38.417969 L 33.820312 38.417969 L 33.828125 38.414062 L 33.832031 38.410156 C 33.835938 38.410156 33.835938 38.40625 33.839844 38.40625 L 33.84375 38.40625 L 33.851562 38.402344 L 33.855469 38.402344 L 33.863281 38.394531 L 33.871094 38.390625 L 33.875 38.390625 L 33.882812 38.386719 L 33.886719 38.382812 L 33.894531 38.378906 L 33.898438 38.378906 L 33.90625 38.375 L 33.917969 38.371094 L 33.921875 38.367188 L 33.929688 38.363281 L 33.953125 38.355469 L 33.960938 38.347656 L 33.972656 38.34375 L 33.976562 38.339844 L 33.996094 38.332031 L 34.007812 38.328125 L 34.027344 38.316406 L 34.039062 38.3125 L 34.050781 38.304688 L 34.070312 38.292969 L 34.082031 38.289062 L 34.117188 38.269531 L 34.128906 38.269531 L 34.148438 38.253906 L 34.160156 38.25 C 34.160156 38.246094 34.164062 38.246094 34.171875 38.246094 C 34.175781 38.242188 34.175781 38.242188 34.179688 38.238281 L 34.191406 38.234375 L 34.203125 38.226562 L 34.222656 38.21875 L 34.234375 38.210938 L 34.238281 38.210938 L 34.242188 38.207031 L 34.246094 38.207031 L 34.257812 38.199219 L 34.265625 38.195312 L 34.269531 38.195312 L 34.277344 38.1875 L 34.289062 38.183594 L 34.289062 38.179688 L 34.300781 38.175781 L 34.308594 38.171875 L 34.3125 38.171875 L 34.316406 38.164062 L 34.320312 38.164062 L 34.328125 38.160156 L 34.332031 38.15625 L 34.339844 38.152344 L 34.34375 38.152344 L 34.351562 38.148438 C 34.351562 38.148438 34.351562 38.148438 34.355469 38.148438 L 34.363281 38.140625 L 34.367188 38.140625 L 34.371094 38.136719 L 34.375 38.136719 L 34.382812 38.128906 L 34.386719 38.128906 C 34.386719 38.125 34.390625 38.125 34.394531 38.125 L 34.398438 38.121094 L 34.402344 38.121094 L 34.410156 38.117188 L 34.421875 38.105469 L 34.429688 38.101562 L 34.441406 38.101562 L 34.449219 38.09375 L 34.457031 38.089844 L 34.460938 38.085938 L 34.464844 38.085938 L 34.472656 38.078125 L 34.476562 38.078125 C 34.480469 38.078125 34.480469 38.078125 34.484375 38.074219 L 34.488281 38.070312 L 34.492188 38.070312 L 34.5 38.066406 L 34.507812 38.058594 L 34.515625 38.054688 L 34.519531 38.054688 C 34.519531 38.050781 34.527344 38.050781 34.53125 38.050781 C 34.527344 38.046875 34.527344 38.046875 34.53125 38.046875 L 34.535156 38.042969 L 34.546875 38.035156 L 34.550781 38.035156 L 34.558594 38.03125 L 34.578125 38.019531 L 34.589844 38.011719 C 34.601562 38.007812 34.609375 38 34.621094 37.996094 C 34.71875 37.9375 34.816406 37.878906 34.910156 37.816406 C 35.265625 37.585938 35.371094 37.117188 35.144531 36.761719 C 34.96875 36.535156 34.710938 36.40625 34.449219 36.417969 Z M 38.359375 29.359375 L 38.320312 29.363281 C 37.917969 29.378906 37.59375 29.710938 37.59375 30.125 C 37.59375 30.546875 37.554688 30.972656 37.484375 31.390625 C 37.410156 31.804688 37.691406 32.203125 38.105469 32.273438 C 38.160156 32.28125 38.210938 32.285156 38.265625 32.285156 C 38.613281 32.269531 38.921875 32.011719 38.984375 31.648438 L 38.984375 31.636719 L 38.988281 31.632812 L 38.984375 31.628906 L 38.988281 31.628906 L 38.988281 31.617188 L 38.992188 31.613281 L 38.992188 31.597656 C 38.992188 31.597656 38.992188 31.59375 38.992188 31.59375 L 38.992188 31.585938 C 39.027344 31.386719 39.054688 31.1875 39.074219 30.988281 L 39.070312 30.984375 L 39.074219 30.980469 L 39.074219 30.957031 L 39.078125 30.953125 L 39.078125 30.949219 L 39.074219 30.945312 L 39.074219 30.941406 L 39.078125 30.9375 L 39.078125 30.933594 L 39.082031 30.929688 L 39.078125 30.925781 L 39.078125 30.917969 C 39.082031 30.917969 39.082031 30.917969 39.082031 30.914062 L 39.082031 30.878906 C 39.101562 30.628906 39.117188 30.378906 39.117188 30.125 C 39.117188 29.707031 38.777344 29.363281 38.359375 29.359375 Z M 37.683594 33.480469 C 37.554688 33.410156 37.417969 33.378906 37.285156 33.386719 C 37.027344 33.398438 36.785156 33.539062 36.648438 33.78125 C 36.445312 34.152344 36.210938 34.507812 35.945312 34.839844 C 35.683594 35.167969 35.742188 35.648438 36.066406 35.910156 C 36.21875 36.03125 36.398438 36.082031 36.574219 36.078125 C 36.785156 36.066406 36.992188 35.96875 37.136719 35.789062 C 37.3125 35.566406 37.480469 35.332031 37.636719 35.09375 C 37.640625 35.082031 37.648438 35.070312 37.65625 35.0625 L 37.664062 35.050781 L 37.667969 35.039062 C 37.671875 35.035156 37.675781 35.035156 37.675781 35.03125 L 37.683594 35.023438 C 37.6875 35.019531 37.6875 35.015625 37.6875 35.011719 L 37.691406 35.007812 L 37.695312 35 C 37.699219 34.996094 37.699219 34.992188 37.699219 34.992188 L 37.703125 34.988281 L 37.707031 34.980469 L 37.710938 34.976562 L 37.714844 34.96875 L 37.71875 34.964844 L 37.726562 34.949219 L 37.726562 34.945312 L 37.734375 34.941406 L 37.734375 34.9375 C 37.738281 34.933594 37.738281 34.929688 37.742188 34.929688 L 37.742188 34.925781 L 37.75 34.921875 C 37.75 34.917969 37.75 34.917969 37.75 34.917969 L 37.75 34.910156 L 37.761719 34.898438 L 37.761719 34.894531 L 37.765625 34.886719 L 37.777344 34.875 C 37.777344 34.871094 37.777344 34.871094 37.777344 34.867188 C 37.777344 34.867188 37.777344 34.867188 37.78125 34.863281 L 37.785156 34.855469 L 37.789062 34.851562 L 37.789062 34.847656 L 37.792969 34.84375 C 37.796875 34.839844 37.796875 34.839844 37.796875 34.839844 C 37.800781 34.835938 37.800781 34.835938 37.800781 34.832031 L 37.804688 34.828125 L 37.808594 34.820312 L 37.8125 34.816406 L 37.8125 34.8125 L 37.816406 34.804688 L 37.824219 34.796875 L 37.824219 34.789062 L 37.832031 34.78125 L 37.832031 34.777344 C 37.832031 34.777344 37.835938 34.777344 37.835938 34.773438 L 37.835938 34.769531 L 37.839844 34.765625 L 37.84375 34.757812 L 37.847656 34.753906 L 37.847656 34.75 L 37.855469 34.742188 C 37.855469 34.742188 37.855469 34.738281 37.859375 34.738281 L 37.859375 34.734375 L 37.867188 34.71875 L 37.871094 34.714844 C 37.871094 34.714844 37.871094 34.710938 37.871094 34.710938 C 37.871094 34.707031 37.871094 34.707031 37.875 34.707031 L 37.878906 34.699219 L 37.882812 34.695312 L 37.886719 34.6875 L 37.886719 34.683594 L 37.894531 34.675781 L 37.898438 34.667969 L 37.898438 34.664062 L 37.902344 34.65625 C 37.90625 34.65625 37.902344 34.652344 37.902344 34.652344 L 37.910156 34.644531 L 37.910156 34.640625 L 37.917969 34.636719 L 37.917969 34.632812 L 37.921875 34.625 L 37.925781 34.621094 L 37.925781 34.609375 L 37.941406 34.59375 L 37.945312 34.582031 L 37.949219 34.578125 L 37.988281 34.507812 C 38.183594 34.152344 38.050781 33.6875 37.683594 33.480469 Z M 37.683594 33.480469 " fill-opacity="1" fill-rule="nonzero"/><path fill="#55acee" d="M 34.554688 34.675781 C 34.554688 34.878906 34.4375 35.074219 34.207031 35.257812 C 33.972656 35.445312 33.644531 35.613281 33.214844 35.753906 C 32.789062 35.898438 32.296875 36.007812 31.734375 36.085938 C 31.175781 36.164062 30.59375 36.203125 29.992188 36.203125 C 29.386719 36.203125 28.804688 36.164062 28.246094 36.085938 C 27.683594 36.007812 27.191406 35.898438 26.765625 35.753906 C 26.335938 35.613281 26.007812 35.445312 25.773438 35.257812 C 25.542969 35.074219 25.429688 34.878906 25.429688 34.675781 C 25.429688 34.472656 25.542969 34.277344 25.773438 34.089844 C 26.007812 33.902344 26.335938 33.738281 26.765625 33.59375 C 27.191406 33.449219 27.683594 33.339844 28.246094 33.261719 C 28.804688 33.183594 29.386719 33.144531 29.992188 33.144531 C 30.59375 33.144531 31.175781 33.183594 31.734375 33.261719 C 32.296875 33.339844 32.789062 33.449219 33.214844 33.59375 C 33.644531 33.738281 33.972656 33.902344 34.207031 34.089844 C 34.4375 34.277344 34.554688 34.472656 34.554688 34.675781 Z M 34.554688 34.675781 " fill-opacity="1" fill-rule="nonzero"/><path fill="#ffcc4d" d="M 33.03125 34.675781 C 33.03125 34.878906 32.972656 35.074219 32.859375 35.257812 C 32.742188 35.445312 32.578125 35.613281 32.363281 35.753906 C 32.148438 35.898438 31.902344 36.007812 31.625 36.085938 C 31.34375 36.164062 31.054688 36.203125 30.75 36.203125 C 30.449219 36.203125 30.15625 36.164062 29.878906 36.085938 C 29.597656 36.007812 29.351562 35.898438 29.136719 35.753906 C 28.921875 35.613281 28.757812 35.445312 28.644531 35.257812 C 28.527344 35.074219 28.46875 34.878906 28.46875 34.675781 C 28.46875 34.472656 28.527344 34.277344 28.644531 34.089844 C 28.757812 33.902344 28.921875 33.738281 29.136719 33.59375 C 29.351562 33.449219 29.597656 33.339844 29.878906 33.261719 C 30.15625 33.183594 30.449219 33.144531 30.75 33.144531 C 31.054688 33.144531 31.34375 33.183594 31.625 33.261719 C 31.902344 33.339844 32.148438 33.449219 32.363281 33.59375 C 32.578125 33.738281 32.742188 33.902344 32.859375 34.089844 C 32.972656 34.277344 33.03125 34.472656 33.03125 34.675781 Z M 33.03125 34.675781 " fill-opacity="1" fill-rule="nonzero"/><path fill="#5c913b" d="M 31.6875 35.09375 C 31.566406 35.09375 31.441406 35.0625 31.324219 35 C 30.957031 34.796875 30.820312 34.332031 31.019531 33.964844 C 31.261719 33.515625 31.519531 33.105469 31.785156 32.75 C 31.570312 32.757812 31.351562 32.761719 31.128906 32.761719 C 30.710938 32.761719 30.328125 32.417969 30.328125 31.996094 C 30.328125 31.574219 30.621094 31.234375 31.042969 31.234375 L 31.167969 31.234375 C 31.621094 31.234375 32.082031 31.207031 32.496094 31.167969 C 32.734375 31.144531 32.964844 31.242188 33.117188 31.40625 C 33.140625 31.390625 33.160156 31.375 33.183594 31.359375 C 33.335938 31.257812 33.476562 31.179688 33.609375 31.113281 C 33.699219 31.042969 33.808594 30.992188 33.929688 30.96875 L 33.984375 30.960938 C 34.269531 30.867188 34.472656 30.855469 34.554688 30.855469 C 34.792969 30.855469 35.019531 30.96875 35.164062 31.164062 C 35.308594 31.359375 35.351562 31.609375 35.277344 31.84375 C 35.152344 32.25 34.875 32.339844 34.386719 32.4375 C 34.296875 32.472656 34.171875 32.535156 34.023438 32.632812 C 33.738281 32.824219 33.367188 32.792969 33.113281 32.582031 C 33.324219 32.851562 33.332031 33.242188 33.109375 33.519531 C 32.851562 33.851562 32.597656 34.246094 32.355469 34.695312 C 32.21875 34.949219 31.957031 35.09375 31.6875 35.09375 Z M 29.53125 32.664062 C 29.496094 32.664062 29.460938 32.664062 29.429688 32.660156 C 28.859375 32.582031 28.320312 32.46875 27.824219 32.320312 C 27.421875 32.199219 27.191406 31.773438 27.3125 31.371094 L 27.320312 31.339844 L 27.300781 31.375 C 27.097656 31.742188 26.632812 31.875 26.265625 31.667969 C 25.75 31.378906 25.285156 31.027344 24.886719 30.628906 C 24.589844 30.328125 24.589844 29.84375 24.886719 29.546875 C 25.183594 29.25 25.664062 29.25 25.960938 29.546875 C 26.261719 29.847656 26.613281 30.113281 27.007812 30.335938 C 27.332031 30.515625 27.472656 30.90625 27.355469 31.246094 C 27.515625 30.921875 27.894531 30.75 28.253906 30.855469 C 28.671875 30.980469 29.132812 31.078125 29.621094 31.144531 C 30.039062 31.199219 30.332031 31.582031 30.277344 32 C 30.234375 32.386719 29.90625 32.664062 29.53125 32.664062 Z M 25.800781 29.089844 C 25.152344 29.089844 24.316406 28.835938 23.804688 28.234375 C 23.027344 27.3125 22.570312 26.128906 22.640625 25.21875 C 22.660156 24.976562 22.421875 24.78125 22.191406 24.71875 C 22.058594 24.683594 21.828125 24.664062 21.71875 24.902344 C 21.628906 25.09375 21.402344 25.175781 21.210938 25.085938 C 21.023438 25 20.9375 24.769531 21.027344 24.578125 C 21.265625 24.0625 21.796875 23.832031 22.382812 23.980469 C 22.925781 24.121094 23.449219 24.613281 23.398438 25.28125 C 23.34375 25.984375 23.742188 26.976562 24.386719 27.742188 C 24.726562 28.144531 25.316406 28.308594 25.714844 28.324219 C 26.042969 28.339844 26.210938 28.265625 26.246094 28.234375 C 26.160156 28.03125 25.03125 27.433594 24.550781 27.179688 C 24.144531 26.964844 24.019531 26.667969 23.992188 26.457031 C 23.890625 25.761719 24.597656 25.058594 25.285156 24.378906 C 25.527344 24.140625 25.757812 23.914062 25.882812 23.746094 C 26.023438 23.558594 26 23.433594 25.972656 23.355469 C 25.867188 23.070312 25.414062 22.785156 24.867188 22.664062 C 24.359375 22.550781 24.019531 22.304688 23.851562 21.933594 C 23.628906 21.441406 23.746094 20.800781 24.207031 19.96875 C 24.308594 19.78125 24.542969 19.71875 24.722656 19.820312 C 24.90625 19.921875 24.972656 20.15625 24.871094 20.339844 C 24.4375 21.121094 24.480469 21.476562 24.542969 21.621094 C 24.609375 21.761719 24.769531 21.859375 25.03125 21.917969 C 25.675781 22.0625 26.449219 22.445312 26.6875 23.089844 C 26.820312 23.457031 26.753906 23.855469 26.492188 24.207031 C 26.332031 24.417969 26.082031 24.664062 25.820312 24.925781 C 25.429688 25.3125 24.695312 26.035156 24.742188 26.347656 C 24.753906 26.414062 24.835938 26.46875 24.90625 26.503906 C 26.046875 27.105469 26.808594 27.542969 26.960938 28.074219 C 27.015625 28.261719 26.996094 28.453125 26.898438 28.625 C 26.75 28.882812 26.445312 29.042969 26.007812 29.082031 C 25.945312 29.085938 25.871094 29.089844 25.800781 29.089844 Z M 25.800781 29.089844 " fill-opacity="1" fill-rule="nonzero"/><path fill="#ffcc4d" d="M 33.03125 30.089844 C 33.03125 30.292969 33.011719 30.488281 32.972656 30.675781 C 32.933594 30.863281 32.878906 31.027344 32.808594 31.171875 C 32.738281 31.3125 32.65625 31.425781 32.5625 31.5 C 32.46875 31.578125 32.371094 31.617188 32.273438 31.617188 C 32.171875 31.617188 32.074219 31.578125 31.980469 31.5 C 31.886719 31.425781 31.804688 31.3125 31.734375 31.171875 C 31.664062 31.027344 31.609375 30.863281 31.570312 30.675781 C 31.53125 30.488281 31.511719 30.292969 31.511719 30.089844 C 31.511719 29.886719 31.53125 29.691406 31.570312 29.503906 C 31.609375 29.316406 31.664062 29.152344 31.734375 29.007812 C 31.804688 28.867188 31.886719 28.753906 31.980469 28.675781 C 32.074219 28.601562 32.171875 28.5625 32.273438 28.5625 C 32.371094 28.5625 32.46875 28.601562 32.5625 28.675781 C 32.65625 28.753906 32.738281 28.867188 32.808594 29.007812 C 32.878906 29.152344 32.933594 29.316406 32.972656 29.503906 C 33.011719 29.691406 33.03125 29.886719 33.03125 30.089844 Z M 33.03125 30.089844 " fill-opacity="1" fill-rule="nonzero"/><path fill="#ffcc4d" d="M 28.914062 28.847656 C 28.914062 29.289062 28.390625 29.644531 27.742188 29.644531 C 27.09375 29.644531 26.570312 29.289062 26.570312 28.847656 C 26.570312 28.410156 27.09375 28.050781 27.742188 28.050781 C 28.386719 28.050781 28.914062 28.410156 28.914062 28.847656 Z M 27.109375 21.777344 C 27.183594 22.101562 26.761719 22.480469 26.167969 22.621094 C 25.570312 22.765625 25.027344 22.617188 24.949219 22.292969 C 24.871094 21.964844 25.292969 21.585938 25.886719 21.445312 C 26.488281 21.304688 27.03125 21.453125 27.109375 21.777344 Z M 27.109375 21.777344 " fill-opacity="1" fill-rule="nonzero"/><path fill="#c1694f" d="M 36.882812 30.019531 C 37.019531 30.128906 37.253906 28.90625 37.21875 28.527344 C 37.21875 28.5 37.175781 27.691406 37.34375 27.113281 C 37.449219 26.917969 37.457031 25.457031 37.292969 25.074219 C 37.421875 25.0625 37.578125 25.023438 37.59375 24.867188 C 37.003906 25.085938 36.867188 23.617188 36.296875 22.773438 C 35.75 21.929688 35.066406 21.4375 34.351562 20.925781 C 34.40625 20.78125 34.492188 20.644531 34.597656 20.511719 C 33.722656 20.953125 32.359375 19.355469 30.347656 19.476562 C 29.894531 19.519531 29.679688 19.546875 29.566406 19.828125 C 29.191406 19.855469 28.808594 19.941406 28.808594 20.441406 C 28.808594 20.558594 28.917969 20.777344 29.15625 20.777344 C 29.484375 20.875 29.753906 20.796875 29.976562 21.261719 L 30.035156 21.738281 C 30.035156 21.738281 29.742188 21.359375 29.582031 21.300781 L 29.679688 21.097656 C 29.527344 21.007812 29.257812 21.078125 29.257812 21.078125 C 29.257812 21.078125 28.671875 20.804688 28.203125 20.878906 L 28.113281 20.496094 C 28.03125 20.730469 27.847656 20.71875 27.820312 20.941406 C 27.769531 20.78125 27.699219 20.585938 27.652344 20.425781 C 27.484375 20.652344 27.535156 20.894531 27.476562 21.132812 C 27.410156 21.1875 27.28125 21.1875 27.246094 21.035156 C 27.230469 20.851562 27.207031 20.832031 27.207031 20.613281 C 27.089844 20.820312 26.945312 20.925781 26.898438 21.28125 L 26.773438 20.886719 C 26.777344 21.355469 26.375 21.632812 25.996094 21.964844 C 25.886719 22.164062 26.011719 22.167969 26.019531 22.269531 L 26.222656 22.371094 L 26.582031 22.34375 C 26.640625 22.417969 26.59375 22.425781 26.75 22.472656 C 27.167969 22.589844 27.691406 22.085938 28.101562 22.878906 C 27.914062 23.039062 27.722656 23.410156 27.785156 23.480469 C 27.859375 23.480469 27.632812 23.589844 27.941406 23.488281 C 27.621094 23.800781 27.40625 24.214844 27.40625 24.238281 C 27.367188 24.324219 27.53125 24.226562 27.5 24.386719 L 27.574219 24.375 C 26.847656 25.167969 27.550781 26.019531 27.472656 26.476562 C 27.59375 26.671875 27.609375 26.472656 27.761719 26.453125 C 27.890625 27.015625 28.257812 27.355469 28.484375 27.800781 L 28.007812 27.804688 C 28.019531 28.015625 28.210938 28.214844 28.359375 28.402344 L 28.042969 28.5 C 27.816406 28.617188 27.667969 28.742188 27.507812 28.921875 C 27.402344 29.175781 28.011719 29.238281 28.308594 29.285156 L 28.296875 29.59375 C 28.757812 29.640625 29.289062 29.5 29.289062 29.476562 L 29.40625 29.386719 L 29.667969 29.527344 C 29.753906 29.527344 29.886719 29.179688 29.824219 28.914062 C 29.992188 29.113281 30.152344 29.433594 30.320312 29.636719 L 30.476562 29.617188 C 30.617188 29.84375 30.816406 30.070312 30.957031 30.296875 L 31.117188 30.359375 C 31.210938 30.328125 31.289062 30.316406 31.339844 30.132812 L 31.414062 30.261719 L 31.664062 30.085938 L 31.839844 30.050781 L 31.972656 30.269531 C 32.050781 30.238281 32.128906 30.070312 32.132812 29.890625 C 32.210938 30.046875 32.230469 30.035156 32.289062 30.074219 L 32.40625 29.828125 L 33.039062 30.421875 L 33.515625 30.449219 C 33.6875 30.566406 34.152344 30.636719 34.230469 30.449219 C 34.613281 30.617188 35.066406 30.429688 35.042969 30.246094 C 35.398438 30.386719 35.941406 30.292969 35.941406 30.269531 C 36.003906 30.261719 36.171875 30.09375 36.015625 29.972656 C 34.847656 29.15625 33.117188 27.804688 32.449219 27.480469 C 32.449219 27.238281 32.269531 26.367188 32.074219 26.128906 L 32.234375 25.863281 C 32.6875 26.289062 32.851562 26.25 33.09375 26.316406 C 33.351562 26.523438 33.441406 26.835938 33.703125 27.121094 L 33.933594 27.164062 C 33.773438 26.757812 33.574219 26.359375 33.089844 25.828125 C 33.339844 25.957031 33.753906 26.289062 34.03125 26.53125 C 34.210938 26.839844 34.265625 27.085938 34.433594 27.46875 C 34.554688 27.546875 34.679688 27.832031 34.664062 27.597656 C 34.632812 27.152344 34.320312 26.449219 34.320312 26.398438 C 34.816406 26.792969 34.8125 27.40625 34.960938 27.78125 C 35.089844 27.96875 35.152344 28.222656 35.207031 28.164062 L 35.0625 27.007812 L 34.976562 26.585938 C 35.34375 26.796875 35.472656 27.609375 35.644531 28.578125 C 35.644531 28.734375 35.707031 28.902344 35.699219 29.003906 C 35.777344 29.101562 35.867188 29.371094 35.867188 29.210938 C 35.867188 29.210938 35.867188 27.628906 35.757812 27.269531 C 35.730469 27.074219 35.804688 26.757812 35.804688 26.757812 C 35.9375 27.414062 36.078125 28.125 36.214844 28.78125 L 36.214844 29.261719 L 36.414062 29.464844 C 36.453125 29.066406 36.5 28.671875 36.539062 28.277344 L 36.386719 26.863281 L 36.386719 26.460938 C 36.386719 26.320312 36.519531 26.34375 36.601562 26.507812 C 36.621094 26.855469 36.621094 27.125 36.636719 27.46875 C 36.695312 27.863281 36.734375 28.152344 36.765625 28.65625 C 36.78125 29.0625 36.800781 30.039062 36.882812 30.019531 Z M 36.882812 30.019531 " fill-opacity="1" fill-rule="nonzero"/></svg>